<?xml version="1.0" encoding="UTF-8"?>
<svg xmlns="http://www.w3.org/2000/svg" xmlns:xlink="http://www.w3.org/1999/xlink" width="65px" height="65px" viewBox="0 0 65 65" version="1.1">
<g id="surface1">
<path style=" stroke:none;fill-rule:nonzero;fill:rgb(100%,100%,100%);fill-opacity:1;" d="M 9.75 0 L 55.25 0 C 60.636719 0 65 4.363281 65 9.75 L 65 55.25 C 65 60.636719 60.636719 65 55.25 65 L 9.75 65 C 4.363281 65 0 60.636719 0 55.25 L 0 9.75 C 0 4.363281 4.363281 0 9.75 0 Z M 9.75 0 "/>
<path style=" stroke:none;fill-rule:nonzero;fill:rgb(25.882353%,72.156863%,51.372549%);fill-opacity:1;" d="M 38.085938 17.773438 L 32.5 27.550781 L 26.914062 17.773438 L 8.125 17.773438 L 32.5 60.050781 L 56.875 17.773438 Z M 38.085938 17.773438 "/>
<path style=" stroke:none;fill-rule:nonzero;fill:rgb(20.784314%,28.627451%,36.862745%);fill-opacity:1;" d="M 38.085938 17.773438 L 32.5 27.550781 L 26.914062 17.773438 L 17.902344 17.773438 L 32.5 43.164062 L 47.097656 17.773438 Z M 38.085938 17.773438 "/>
</g>
</svg>
