<?xml version="1.0" encoding="UTF-8"?>
<svg xmlns="http://www.w3.org/2000/svg" xmlns:xlink="http://www.w3.org/1999/xlink" width="65px" height="65px" viewBox="0 0 65 65" version="1.1">
<defs>
<linearGradient id="linear0" gradientUnits="userSpaceOnUse" x1="17.846" y1="-147.541" x2="27.078" y2="-163.153" gradientTransform="matrix(1.354167,0,0,-1.354167,0,-178.75)">
<stop offset="0" style="stop-color:rgb(100%,100%,100%);stop-opacity:1;"/>
<stop offset="1" style="stop-color:rgb(94.509804%,89.803922%,98.823529%);stop-opacity:1;"/>
</linearGradient>
</defs>
<g id="surface1">
<path style=" stroke:none;fill-rule:nonzero;fill:rgb(42.352941%,9.803922%,100%);fill-opacity:1;" d="M 8.65625 14.449219 C 8.539062 11.136719 11.121094 8.078125 14.613281 8.078125 L 50.390625 8.078125 C 53.882812 8.078125 56.464844 11.136719 56.351562 14.449219 C 56.238281 17.636719 56.382812 21.761719 57.421875 25.125 C 58.464844 28.5 60.21875 30.632812 63.097656 30.90625 L 63.097656 34.011719 C 60.21875 34.285156 58.464844 36.417969 57.421875 39.792969 C 56.382812 43.15625 56.238281 47.28125 56.351562 50.46875 C 56.464844 53.78125 53.882812 56.839844 50.390625 56.839844 L 14.613281 56.839844 C 11.125 56.839844 8.539062 53.78125 8.65625 50.46875 C 8.765625 47.28125 8.621094 43.15625 7.585938 39.792969 C 6.542969 36.417969 4.78125 34.285156 1.90625 34.011719 L 1.90625 30.90625 C 4.78125 30.632812 6.542969 28.5 7.585938 25.125 C 8.621094 21.761719 8.765625 17.636719 8.65625 14.449219 Z M 8.65625 14.449219 "/>
<path style=" stroke:none;fill-rule:nonzero;fill:url(#linear0);" d="M 33.910156 46.0625 C 39.824219 46.0625 43.386719 43.167969 43.386719 38.394531 C 43.386719 34.785156 40.84375 32.171875 37.070312 31.757812 L 37.070312 31.609375 C 39.84375 31.15625 42.019531 28.582031 42.019531 25.703125 C 42.019531 21.605469 38.785156 18.9375 33.851562 18.9375 L 22.757812 18.9375 L 22.757812 46.0625 Z M 27.074219 22.378906 L 32.8125 22.378906 C 35.933594 22.378906 37.707031 23.769531 37.707031 26.285156 C 37.707031 28.976562 35.644531 30.480469 31.910156 30.480469 L 27.074219 30.480469 Z M 27.074219 42.621094 L 27.074219 33.691406 L 32.777344 33.691406 C 36.859375 33.691406 38.976562 35.195312 38.976562 38.128906 C 38.976562 41.0625 36.914062 42.621094 33.027344 42.621094 Z M 27.074219 42.621094 "/>
</g>
</svg>
