<?xml version="1.0" encoding="UTF-8"?>
<svg xmlns="http://www.w3.org/2000/svg" xmlns:xlink="http://www.w3.org/1999/xlink" width="65px" height="65px" viewBox="0 0 65 65" version="1.1">
<g id="surface1">
<path style=" stroke:none;fill-rule:nonzero;fill:rgb(0%,47.843137%,80%);fill-opacity:1;" d="M 1.015625 32.453125 L 1.015625 64.191406 L 64.492188 64.191406 L 64.492188 0.714844 L 1.015625 0.714844 Z M 52.167969 29.914062 C 53.6875 30.269531 55.070312 31.0625 56.140625 32.199219 C 56.726562 32.8125 57.238281 33.496094 57.664062 34.230469 C 57.664062 34.3125 54.917969 36.167969 53.25 37.203125 C 53.1875 37.242188 52.945312 36.980469 52.675781 36.578125 C 52.054688 35.507812 50.929688 34.832031 49.695312 34.785156 C 47.769531 34.652344 46.53125 35.664062 46.539062 37.324219 C 46.523438 37.738281 46.621094 38.148438 46.816406 38.511719 C 47.238281 39.390625 48.023438 39.914062 50.492188 40.980469 C 55.035156 42.933594 56.980469 44.226562 58.191406 46.058594 C 59.539062 48.089844 59.839844 51.371094 58.925781 53.796875 C 57.910156 56.4375 55.421875 58.230469 51.902344 58.824219 C 50.296875 59.007812 48.671875 58.992188 47.070312 58.773438 C 44.621094 58.378906 42.367188 57.210938 40.625 55.449219 C 40.039062 54.804688 38.902344 53.121094 38.976562 53 C 39.160156 52.863281 39.355469 52.738281 39.558594 52.628906 L 41.894531 51.289062 L 43.71875 50.234375 L 44.097656 50.796875 C 44.742188 51.714844 45.558594 52.5 46.503906 53.101562 C 48.535156 54.167969 51.308594 54.019531 52.679688 52.789062 C 53.628906 51.855469 53.777344 50.375 53.03125 49.273438 C 52.523438 48.566406 51.507812 47.972656 48.667969 46.734375 C 45.394531 45.320312 43.980469 44.449219 42.691406 43.058594 C 41.886719 42.140625 41.292969 41.054688 40.949219 39.882812 C 40.695312 38.542969 40.65625 37.171875 40.839844 35.820312 C 41.511719 32.65625 43.886719 30.449219 47.347656 29.792969 C 48.953125 29.59375 50.578125 29.640625 52.167969 29.925781 Z M 37.269531 32.574219 L 37.269531 35.175781 L 29.027344 35.175781 L 29.027344 58.652344 L 23.179688 58.652344 L 23.179688 35.171875 L 14.917969 35.171875 L 14.917969 32.632812 C 14.898438 31.757812 14.921875 30.882812 14.992188 30.011719 C 15.019531 29.972656 20.070312 29.949219 26.164062 29.960938 L 37.238281 29.960938 Z M 37.269531 32.574219 "/>
</g>
</svg>
